<?xml version="1.0" encoding="UTF-8"?>
<!-- Created with Inkscape (http://www.inkscape.org/) -->
<svg width="89mm" height="89mm" version="1.1" viewBox="0 0 89 89" xmlns="http://www.w3.org/2000/svg">
 <defs>
  <clipPath id="clipPath950">
   <path d="m23333 1945.7c-120.3-47.19-241.1-122.38-306.3-192.96l-2.7 0.07c-77.1 3.02-98.1 87.22-40.6 136.96 50.9 43.96 153 111.38 286.9 163.38 12.8-39.62 34-76.15 62.7-107.45z"/>
  </clipPath>
  <linearGradient id="linearGradient958" x2="1" gradientTransform="matrix(142.26 -646.34 -646.34 -142.26 23084 2145.2)" gradientUnits="userSpaceOnUse">
   <stop stop-color="#9470bf" offset="0"/>
   <stop stop-color="#9470bf" offset=".0046948"/>
   <stop stop-color="#5548a7" offset="1"/>
  </linearGradient>
  <clipPath id="clipPath968">
   <path d="m24806 1465.8h-624.8v0.03h624.7l-264.3 344.65v0.01c9.9 2.89 19.6 5.92 29.3 8.88 82.5 25.32 161.2 51.6 235 78.28v114.82c-93.5-34.68-196.7-69-305.3-101.41-6.3-1.85-12.6-3.71-18.9-5.57-3.5-1.02-7-2.13-10.5-3.16l-28.4 37.14-261.6 341 624.8 467.55v-1282.2"/>
  </clipPath>
  <linearGradient id="linearGradient976" x2="1" gradientTransform="matrix(-9.4172 -1210.1 -1210.1 9.4172 24504 3167.2)" gradientUnits="userSpaceOnUse">
   <stop stop-color="#fbc907" offset="0"/>
   <stop stop-color="#fbc907" offset=".0046948"/>
   <stop stop-color="#f36219" offset="1"/>
  </linearGradient>
  <clipPath id="clipPath986">
   <path d="m23304 1327.1v292.24-45.54c5.1 0.27 10.4 0.55 15.7 0.82 88.2 4.82 186.3 14.65 291.2 29.25 25.7 3.57 51.8 7.43 78.2 11.48l77.9 58.27 0.1 0.01-0.1-0.03-77.8-58.26h-0.1l-385.1-288.24m0 343.42v74.42c188.7 23.05 332.9 94.45 427.2 151-2.3 3.23-4.6 6.39-7 9.5-6.8 9.21-14.2 18.36-21.5 27.58l-5 5.43c-19.6-8.53-39-16.43-57.9-23.94-29.8-11.64-60-17.05-89.5-17.05-130.3-0.01-246.3 105.98-246.3 247.44v464.35h0.1l385.9-503.35-59.1-50.22 91.3 8.25 36.8 3.3c-6.3-9.21-12.2-18.64-17.8-28.2-13.6-23.18-25.3-47.26-35.1-72.03l53.4-62.81c23.6 5.09 46.9 11.84 69.7 20.23 12.7 4.67 25.3 9.84 37.8 15.55l-12.5-48.5-19.7-76.02 47.2 40.11 46.7 39.62-46.7-39.62 35.6-46.51 11.1-14.44-52.9-39.6v-0.01c-28.2-5.64-56.4-11.08-84.6-16.24-86.2-15.96-172.7-30.06-259.6-41.61-44.5-5.38-88.9-11.56-133.4-17.14-31.3-3.91-62.8-7.09-94.2-9.49"/>
  </clipPath>
  <linearGradient id="linearGradient994" x2="1" gradientTransform="matrix(0 1388.8 1388.8 0 23617 853.49)" gradientUnits="userSpaceOnUse">
   <stop stop-color="#fbc907" offset="0"/>
   <stop stop-color="#fbc907" offset=".0046948"/>
   <stop stop-color="#f36219" offset="1"/>
  </linearGradient>
  <clipPath id="clipPath1004">
   <path d="m23760 2067.2c-6.3-9.22-12.2-18.64-17.8-28.2l-19 24.9z"/>
  </clipPath>
  <linearGradient id="linearGradient1012" x2="1" gradientTransform="matrix(1233.4 -1889 -1889 -1233.4 23143 2981.5)" gradientUnits="userSpaceOnUse">
   <stop stop-color="#f36219" offset="0"/>
   <stop stop-color="#fbc907" offset=".9953"/>
   <stop stop-color="#fbc907" offset="1"/>
  </linearGradient>
  <clipPath id="clipPath1022">
   <path d="m23868 1939.9-12.5-48.5-25.3 32.95c12.7 4.68 25.3 9.84 37.8 15.55z"/>
  </clipPath>
  <linearGradient id="linearGradient1030" x2="1" gradientTransform="matrix(1233.4 -1889 -1889 -1233.4 23157 2990.9)" gradientUnits="userSpaceOnUse">
   <stop stop-color="#f36219" offset="0"/>
   <stop stop-color="#fbc907" offset=".9953"/>
   <stop stop-color="#fbc907" offset="1"/>
  </linearGradient>
  <clipPath id="clipPath1040">
   <path d="m24038 2139.8c-17.4-14.72-43.5-12.59-58.3 4.81-14.8 17.41-12.6 43.55 4.8 58.34s43.5 12.66 58.3-4.82c14.8-17.4 12.7-43.54-4.8-58.33z"/>
  </clipPath>
  <linearGradient id="linearGradient1048" x2="1" gradientTransform="matrix(1233.4 -1889 -1889 -1233.4 23381 3136.9)" gradientUnits="userSpaceOnUse">
   <stop stop-color="#f36219" offset="0"/>
   <stop stop-color="#fbc907" offset=".9953"/>
   <stop stop-color="#fbc907" offset="1"/>
  </linearGradient>
  <clipPath id="clipPath1058">
   <path d="m24806 1465.9h-624.7l-161.6 210.78v0.01c10.3 2.2 20.5 4.48 30.9 6.75 43.2 9.42 86.8 19.39 130.7 29.91l2 0.49c124.1 29.79 244.6 62.33 358.4 96.72v-0.01l264.3-344.65m-810.5 242.27-5.9 7.72v0.02l5.9-7.74m-47.2 61.61-19 24.81-11.1 14.44-35.6 46.51 46.7 39.62 74.1 62.95-19.8 55.45 1.8 1.44c87.6 74.37 144.3 172.26 169.1 277.92-78.3-5.3-155.4-27.72-225.2-67.89-26.7-15.35-52.3-33.3-76.5-53.8l-1.7-1.52-51.6 28.62-108.9-92.45-385.9 503.35h-0.1v0.07h624.7v-0.07l252-328.69 261.6-341 28.4-37.14c-93.6-27.93-190.8-54.42-290-79.04-17.1-4.27-34.4-8.53-51.6-12.66-9.4 0-21.1-5.02-30.3-7.16-10.7-2.54-21.4-5.02-32-7.49-20.7-4.75-41.3-9.36-62-13.97-8.7-1.92-17.4-3.78-26.1-5.71-10.3-2.19-20.7-4.39-31-6.59"/>
  </clipPath>
  <linearGradient id="linearGradient1066" x2="1" gradientTransform="matrix(1233.4 -1889 -1889 -1233.4 23350 3117)" gradientUnits="userSpaceOnUse">
   <stop stop-color="#f36219" offset="0"/>
   <stop stop-color="#fbc907" offset=".9953"/>
   <stop stop-color="#fbc907" offset="1"/>
  </linearGradient>
  <clipPath id="clipPath1078">
   <path d="m23304 1573.8v96.72c31.4 2.4 62.9 5.58 94.2 9.49 44.5 5.58 88.9 11.76 133.4 17.14 86.9 11.55 173.4 25.65 259.6 41.61 28.2 5.16 56.4 10.6 84.6 16.24v0.01-0.03h-0.1l-108.6-81.35-0.1-0.01-77.9-58.27c-26.4-4.05-52.5-7.91-78.2-11.48-104.9-14.6-203-24.43-291.2-29.25-5.3-0.27-10.6-0.55-15.7-0.82"/>
  </clipPath>
  <linearGradient id="linearGradient1086" x2="1" gradientTransform="matrix(0 1388.8 1388.8 0 23617 853.49)" gradientUnits="userSpaceOnUse">
   <stop stop-color="#ae901d" offset="0"/>
   <stop stop-color="#ae901d" offset=".0046948"/>
   <stop stop-color="#b54722" offset="1"/>
  </linearGradient>
  <clipPath id="clipPath1098">
   <path d="m24542 1810.5-28.3 37-42 54.82h-0.1v0.02c3.5 1.03 7 2.14 10.5 3.16 6.3 1.86 12.6 3.72 18.9 5.57 108.6 32.41 211.8 66.73 305.3 101.41v-114.82c-73.8-26.68-152.5-52.96-235-78.28-9.7-2.96-19.4-5.99-29.3-8.88"/>
  </clipPath>
  <linearGradient id="linearGradient1106" x2="1" gradientTransform="matrix(-9.4172 -1210.1 -1210.1 9.4172 24504 3167.2)" gradientUnits="userSpaceOnUse">
   <stop stop-color="#ae901d" offset="0"/>
   <stop stop-color="#ae901d" offset=".0046948"/>
   <stop stop-color="#b54722" offset="1"/>
  </linearGradient>
  <clipPath id="clipPath1116">
   <path d="m24020 1676.7-24.2 31.48-5.9 7.74-41.3 53.85v0.02c10.3 2.2 20.7 4.4 31 6.59 8.7 1.93 17.4 3.79 26.1 5.71 20.7 4.61 41.3 9.22 62 13.97 10.6 2.47 21.3 4.95 32 7.49 9.2 2.14 20.9 7.16 30.3 7.16 17.2 4.13 34.5 8.39 51.6 12.66 99.2 24.62 196.4 51.11 290 79.04v-0.02h0.1l42-54.82 28.3-37c-113.8-34.39-234.3-66.93-358.4-96.72l-2-0.49c-43.9-10.52-87.5-20.49-130.7-29.91-10.4-2.27-20.6-4.55-30.9-6.75"/>
  </clipPath>
  <linearGradient id="linearGradient1124" x2="1" gradientTransform="matrix(1233.4 -1889 -1889 -1233.4 23350 3117)" gradientUnits="userSpaceOnUse">
   <stop stop-color="#b54722" offset="0"/>
   <stop stop-color="#ae901d" offset=".9953"/>
   <stop stop-color="#ae901d" offset="1"/>
  </linearGradient>
  <clipPath id="clipPath1134">
   <path d="m25210 2313-1.8-1.03c-127.3 31.51-263.7 26.07-354.6 17.2v98.37c48.4 3.17 93.1 4.75 133 4.75 61.6 0 138.5-6.47 199.5-13.83 55.5-6.6 71.7-77.46 23.9-105.46z"/>
  </clipPath>
  <linearGradient id="linearGradient1142" x2="1" gradientTransform="matrix(143.75 -653.14 -653.14 -143.75 24997 2573)" gradientUnits="userSpaceOnUse">
   <stop stop-color="#9470bf" offset="0"/>
   <stop stop-color="#9470bf" offset=".0046948"/>
   <stop stop-color="#5548a7" offset="1"/>
  </linearGradient>
  <clipPath id="clipPath1152">
   <path d="m25020 2028.2c-64.9-28.55-136.6-57.03-213.8-84.96-73.8-26.69-152.5-52.97-235-78.29-122.4-37.63-253-73.26-387.7-105.6l-2-0.48c-43.9-10.52-87.5-20.5-130.7-29.92-153.7-33.71-302.2-60.61-439.1-79.59-104.9-14.59-203-24.43-291.2-29.24-5.3-0.28-10.6-0.55-15.7-0.83-35.8-1.78-69.2-2.61-99.8-2.61-37.5 0-71.9 1.31-102.2 3.85-64.4 5.51-145.6 12.52-194.2 59.23-35.3 33.85-45.7 111.86-0.5 142.88 1.1-8.94 3.3-17.88 6.4-26.62 16.5-45.26 57.4-71.96 105.2-77.05 94.7-10.04 190.2-10.18 285.1-2.95 31.4 2.4 62.9 5.57 94.2 9.49 44.5 5.57 88.9 11.76 133.4 17.13 86.9 11.56 173.4 25.66 259.6 41.62 29.9 5.5 59.8 11.28 89.7 17.26 32.6 6.54 65.3 13.35 97.8 20.37 8.7 1.92 17.4 3.78 26.1 5.71 20.7 4.61 41.3 9.22 61.9 13.96 10.7 2.48 21.4 4.95 32.1 7.5 9.2 2.13 20.9 7.15 30.3 7.15 17.2 4.13 34.5 8.4 51.6 12.66 102.9 25.52 203.7 53.11 300.5 82.21 6.4 1.86 12.6 3.71 18.9 5.57 108.6 32.4 211.9 66.73 305.3 101.4 47.5 17.61 92.4 35.29 134.2 52.83 63.3 26.63 126 55.18 185.9 88.33 32.3 17.82 64.3 36.39 93 59.3 28.4 22.63 53.3 48.71 61.3 84.55 2.8 12.93 3.3 26.35 0.4 39.35-1.9 8.39-4.7 16.37-8.4 23.73 39.7-9.77 79.9-30.13 95.9-76.7 31.1-90.6-88.3-186.64-348.5-301.24z"/>
  </clipPath>
  <linearGradient id="linearGradient1160" x2="1" gradientTransform="matrix(148.92 -676.59 -676.59 -148.92 24049 2375.3)" gradientUnits="userSpaceOnUse">
   <stop stop-color="#9470bf" offset="0"/>
   <stop stop-color="#9470bf" offset=".0046948"/>
   <stop stop-color="#5548a7" offset="1"/>
  </linearGradient>
 </defs>
 <g transform="translate(-7.0165 -68.151)">
  <g transform="translate(.48558 19.435)">
   <g transform="matrix(.035278 0 0 -.035278 -800.06 165.1)">
    <g clip-path="url(#clipPath950)">
     <path d="m23333 1945.7c-120.3-47.19-241.1-122.38-306.3-192.96l-2.7 0.07c-77.1 3.02-98.1 87.22-40.6 136.96 50.9 43.96 153 111.38 286.9 163.38 12.8-39.62 34-76.15 62.7-107.45" fill="url(#linearGradient958)"/>
    </g>
    <g clip-path="url(#clipPath968)">
     <path d="m24806 1465.8h-624.8v0.03h624.7l-264.3 344.65v0.01c9.9 2.89 19.6 5.92 29.3 8.88 82.5 25.32 161.2 51.6 235 78.28v114.82c-93.5-34.68-196.7-69-305.3-101.41-6.3-1.85-12.6-3.71-18.9-5.57-3.5-1.02-7-2.13-10.5-3.16l-28.4 37.14-261.6 341 624.8 467.55v-1282.2" fill="url(#linearGradient976)"/>
    </g>
    <g clip-path="url(#clipPath986)">
     <path d="m23304 1327.1v292.24-45.54c5.1 0.27 10.4 0.55 15.7 0.82 88.2 4.82 186.3 14.65 291.2 29.25 25.7 3.57 51.8 7.43 78.2 11.48l77.9 58.27 0.1 0.01-0.1-0.03-77.8-58.26h-0.1l-385.1-288.24m0 343.42v74.42c188.7 23.05 332.9 94.45 427.2 151-2.3 3.23-4.6 6.39-7 9.5-6.8 9.21-14.2 18.36-21.5 27.58l-5 5.43c-19.6-8.53-39-16.43-57.9-23.94-29.8-11.64-60-17.05-89.5-17.05-130.3-0.01-246.3 105.98-246.3 247.44v464.35h0.1l385.9-503.35-59.1-50.22 91.3 8.25 36.8 3.3c-6.3-9.21-12.2-18.64-17.8-28.2-13.6-23.18-25.3-47.26-35.1-72.03l53.4-62.81c23.6 5.09 46.9 11.84 69.7 20.23 12.7 4.67 25.3 9.84 37.8 15.55l-12.5-48.5-19.7-76.02 47.2 40.11 46.7 39.62-46.7-39.62 35.6-46.51 11.1-14.44-52.9-39.6v-0.01c-28.2-5.64-56.4-11.08-84.6-16.24-86.2-15.96-172.7-30.06-259.6-41.61-44.5-5.38-88.9-11.56-133.4-17.14-31.3-3.91-62.8-7.09-94.2-9.49" fill="url(#linearGradient994)"/>
    </g>
    <g clip-path="url(#clipPath1004)">
     <path d="m23760 2067.2c-6.3-9.22-12.2-18.64-17.8-28.2l-19 24.9 36.8 3.3" fill="url(#linearGradient1012)"/>
    </g>
    <g clip-path="url(#clipPath1022)">
     <path d="m23868 1939.9-12.5-48.5-25.3 32.95c12.7 4.68 25.3 9.84 37.8 15.55" fill="url(#linearGradient1030)"/>
    </g>
    <g clip-path="url(#clipPath1040)">
     <path d="m24038 2139.8c-17.4-14.72-43.5-12.59-58.3 4.81-14.8 17.41-12.6 43.55 4.8 58.34s43.5 12.66 58.3-4.82c14.8-17.4 12.7-43.54-4.8-58.33" fill="url(#linearGradient1048)"/>
    </g>
    <g clip-path="url(#clipPath1058)">
     <path d="m24806 1465.9h-624.7l-161.6 210.78v0.01c10.3 2.2 20.5 4.48 30.9 6.75 43.2 9.42 86.8 19.39 130.7 29.91l2 0.49c124.1 29.79 244.6 62.33 358.4 96.72v-0.01l264.3-344.65m-810.5 242.27-5.9 7.72v0.02l5.9-7.74m-47.2 61.61-19 24.81-11.1 14.44-35.6 46.51 46.7 39.62 74.1 62.95-19.8 55.45 1.8 1.44c87.6 74.37 144.3 172.26 169.1 277.92-78.3-5.3-155.4-27.72-225.2-67.89-26.7-15.35-52.3-33.3-76.5-53.8l-1.7-1.52-51.6 28.62-108.9-92.45-385.9 503.35h-0.1v0.07h624.7v-0.07l252-328.69 261.6-341 28.4-37.14c-93.6-27.93-190.8-54.42-290-79.04-17.1-4.27-34.4-8.53-51.6-12.66-9.4 0-21.1-5.02-30.3-7.16-10.7-2.54-21.4-5.02-32-7.49-20.7-4.75-41.3-9.36-62-13.97-8.7-1.92-17.4-3.78-26.1-5.71-10.3-2.19-20.7-4.39-31-6.59" fill="url(#linearGradient1066)"/>
    </g>
   </g>
   <path d="m18.551 108.06c-1.3229 0-2.5365-0.0459-3.6054-0.13582-2.2719-0.19403-5.1364-0.44168-6.8509-2.0895-0.48683-0.46849-0.84314-1.1769-0.99131-1.9293 0.13758-0.60678 0.44803-1.1455 0.97367-1.5046 0.038806 0.31574 0.11642 0.63077 0.22578 0.93909 0.58208 1.597 2.0249 2.5386 3.7112 2.7182 1.8239 0.19297 3.6548 0.28257 5.4822 0.28257 1.5275 0 3.0551-0.0621 4.5755-0.17815v1.8055c-1.2629 0.0631-2.4412 0.0921-3.5207 0.0921m19.858-2.0073 3.8312-2.8698h0.0035v-1e-3c0.05997-0.012 0.11994-0.024 0.17992-0.036 0.78669-0.1577 1.5699-0.32033 2.3566-0.48543v-3.5e-4 7.1e-4l1.457 1.8997c-2.6705 0.56056-5.2917 1.058-7.8281 1.4922" fill="#b7b3cf"/>
   <g transform="matrix(.035278 0 0 -.035278 -800.06 165.1)">
    <g clip-path="url(#clipPath1078)">
     <path d="m23304 1573.8v96.72c31.4 2.4 62.9 5.58 94.2 9.49 44.5 5.58 88.9 11.76 133.4 17.14 86.9 11.55 173.4 25.65 259.6 41.61 28.2 5.16 56.4 10.6 84.6 16.24v0.01-0.03h-0.1l-108.6-81.35-0.1-0.01-77.9-58.27c-26.4-4.05-52.5-7.91-78.2-11.48-104.9-14.6-203-24.43-291.2-29.25-5.3-0.27-10.6-0.55-15.7-0.82" fill="url(#linearGradient1086)"/>
    </g>
   </g>
   <path d="m47.299 105.95h-0.0035l-0.85019-1.1105 0.85372 1.1105" fill="#b7b3cf"/>
   <g transform="matrix(.035278 0 0 -.035278 -800.06 165.1)">
    <g clip-path="url(#clipPath1098)">
     <path d="m24542 1810.5-28.3 37-42 54.82h-0.1v0.02c3.5 1.03 7 2.14 10.5 3.16 6.3 1.86 12.6 3.72 18.9 5.57 108.6 32.41 211.8 66.73 305.3 101.41v-114.82c-73.8-26.68-152.5-52.96-235-78.28-9.7-2.96-19.4-5.99-29.3-8.88" fill="url(#linearGradient1106)"/>
    </g>
    <g clip-path="url(#clipPath1116)">
     <path d="m24020 1676.7-24.2 31.48-5.9 7.74-41.3 53.85v0.02c10.3 2.2 20.7 4.4 31 6.59 8.7 1.93 17.4 3.79 26.1 5.71 20.7 4.61 41.3 9.22 62 13.97 10.6 2.47 21.3 4.95 32 7.49 9.2 2.14 20.9 7.16 30.3 7.16 17.2 4.13 34.5 8.39 51.6 12.66 99.2 24.62 196.4 51.11 290 79.04v-0.02h0.1l42-54.82 28.3-37c-113.8-34.39-234.3-66.93-358.4-96.72l-2-0.49c-43.9-10.52-87.5-20.49-130.7-29.91-10.4-2.27-20.6-4.55-30.9-6.75" fill="url(#linearGradient1124)"/>
    </g>
    <g clip-path="url(#clipPath1134)">
     <path d="m25210 2313-1.8-1.03c-127.3 31.51-263.7 26.07-354.6 17.2v98.37c48.4 3.17 93.1 4.75 133 4.75 61.6 0 138.5-6.47 199.5-13.83 55.5-6.6 71.7-77.46 23.9-105.46" fill="url(#linearGradient1142)"/>
    </g>
    <g clip-path="url(#clipPath1152)">
     <path d="m25020 2028.2c-64.9-28.55-136.6-57.03-213.8-84.96-73.8-26.69-152.5-52.97-235-78.29-122.4-37.63-253-73.26-387.7-105.6l-2-0.48c-43.9-10.52-87.5-20.5-130.7-29.92-153.7-33.71-302.2-60.61-439.1-79.59-104.9-14.59-203-24.43-291.2-29.24-5.3-0.28-10.6-0.55-15.7-0.83-35.8-1.78-69.2-2.61-99.8-2.61-37.5 0-71.9 1.31-102.2 3.85-64.4 5.51-145.6 12.52-194.2 59.23-35.3 33.85-45.7 111.86-0.5 142.88 1.1-8.94 3.3-17.88 6.4-26.62 16.5-45.26 57.4-71.96 105.2-77.05 94.7-10.04 190.2-10.18 285.1-2.95 31.4 2.4 62.9 5.57 94.2 9.49 44.5 5.57 88.9 11.76 133.4 17.13 86.9 11.56 173.4 25.66 259.6 41.62 29.9 5.5 59.8 11.28 89.7 17.26 32.6 6.54 65.3 13.35 97.8 20.37 8.7 1.92 17.4 3.78 26.1 5.71 20.7 4.61 41.3 9.22 61.9 13.96 10.7 2.48 21.4 4.95 32.1 7.5 9.2 2.13 20.9 7.15 30.3 7.15 17.2 4.13 34.5 8.4 51.6 12.66 102.9 25.52 203.7 53.11 300.5 82.21 6.4 1.86 12.6 3.71 18.9 5.57 108.6 32.4 211.9 66.73 305.3 101.4 47.5 17.61 92.4 35.29 134.2 52.83 63.3 26.63 126 55.18 185.9 88.33 32.3 17.82 64.3 36.39 93 59.3 28.4 22.63 53.3 48.71 61.3 84.55 2.8 12.93 3.3 26.35 0.4 39.35-1.9 8.39-4.7 16.37-8.4 23.73 39.7-9.77 79.9-30.13 95.9-76.7 31.1-90.6-88.3-186.64-348.5-301.24" fill="url(#linearGradient1160)"/>
    </g>
   </g>
  </g>
 </g>
</svg>
